<svg width="128" height="128" viewBox="0 0 128 128" fill="none" xmlns="http://www.w3.org/2000/svg">
<path fill-rule="evenodd" clip-rule="evenodd" d="M64 128C99.3462 128 128 99.3462 128 64C128 28.6538 99.3462 0 64 0C28.6538 0 0 28.6538 0 64C0 99.3462 28.6538 128 64 128Z" fill="#87B645"/>
<path d="M85.5947 44.2362C87.3955 42.2416 90.4194 42.1338 92.3488 43.9954C94.2782 45.8571 94.3824 48.9833 92.5817 50.978L59.1311 88.0306C57.3839 89.9658 54.4718 90.1335 52.5277 88.4107L35.8024 73.5896C33.7986 71.814 33.5665 68.6951 35.2841 66.6235C37.0016 64.5519 40.0184 64.312 42.0222 66.0877L55.2696 77.8268L85.5947 44.2362Z" fill="white"/>
</svg>
