<svg width="104" height="104" viewBox="0 0 104 104" fill="none" xmlns="http://www.w3.org/2000/svg">
<g opacity="0.6">
<path fill-rule="evenodd" clip-rule="evenodd" d="M103.559 52.2569C103.559 80.8331 80.3937 103.998 51.8175 103.998C23.2413 103.998 0.0761719 80.8331 0.0761719 52.2569C0.0761719 23.6807 23.2413 0.515625 51.8175 0.515625C80.3937 0.515625 103.559 23.6807 103.559 52.2569Z" fill="#FFC246"/>
<path fill-rule="evenodd" clip-rule="evenodd" d="M74.9782 45.1912C76.0479 37.924 70.5695 33.9958 63.0489 31.3769L65.4801 21.5563L59.4183 20.0178L57.0194 29.642L52.2866 28.4962L54.653 18.8393L48.7208 17.3335L46.2896 27.1541L34.2955 24.2079L32.8368 30.624C32.8368 30.624 37.2454 31.6388 37.1482 31.7043C38.8232 31.9565 40.0237 33.4683 39.9035 35.1742L33.4203 62.2136C33.2487 62.7695 32.8653 63.2337 32.3545 63.5039C31.8437 63.7741 31.2475 63.828 30.6973 63.6539L26.0617 62.5409L23.1118 69.4153L30.8594 71.3795L35.1059 72.4925L32.6423 82.313L38.5745 83.7861L41.0057 73.9655L45.8033 75.3404L43.3721 85.161L49.3367 86.6668L51.8004 76.6826C61.9468 78.6467 69.5646 77.861 72.7739 68.597C75.3672 61.1333 72.7739 56.8123 67.3279 54.0298C71.568 53.1769 74.7085 49.5487 74.9782 45.1912ZM61.3956 64.4396C59.5479 71.9032 47.0999 67.7131 43.0803 66.862L46.3219 53.7679C50.2443 54.6517 63.1785 56.6158 61.2659 64.4396H61.3956ZM63.2114 45.093C61.5582 51.8692 51.1849 48.3665 47.846 47.5809L50.6662 35.5998C54.0375 36.4509 64.8322 38.0222 63.0817 45.093H63.2114Z" fill="white"/>
</g>
</svg>
