<svg width="56" height="56" viewBox="0 0 56 56" fill="none" xmlns="http://www.w3.org/2000/svg">
<g opacity="0.6">
<path fill-rule="evenodd" clip-rule="evenodd" d="M55.7214 27.8607C55.7214 43.2479 43.2479 55.7214 27.8607 55.7214C12.4735 55.7214 0 43.2479 0 27.8607C0 12.4735 12.4735 0 27.8607 0C43.2479 0 55.7214 12.4735 55.7214 27.8607Z" fill="#5D8BAD"/>
<path fill-rule="evenodd" clip-rule="evenodd" d="M26.7595 11.2447L26.7653 11.2445C27.1845 11.226 27.7333 11.2019 28.1489 11.2002C29.6206 11.2061 30.3892 11.7822 30.0885 12.9119C29.7181 14.2986 27.8255 16.1808 25.2836 17.8673C24.8031 18.0958 24.3074 17.4474 24.4099 17.1719C24.4305 17.1317 24.4591 17.0963 24.4939 17.0677C26.7141 15.5954 28.3665 13.9525 28.6941 12.7414C28.9808 11.644 28.1182 11.1492 26.543 11.2629L26.7595 11.2447ZM26.3798 11.2766L26.543 11.2629C26.4894 11.2668 26.435 11.2713 26.3798 11.2766ZM36.256 15.0713C36.5408 14.0088 36.1855 13.2764 35.332 12.88C35.0578 12.7488 34.7185 12.6059 34.3978 12.4707L34.3977 12.4707L34.3977 12.4707L34.3976 12.4706C34.3077 12.4327 34.2192 12.3955 34.1341 12.3593C34.0686 12.3307 34.0006 12.3021 33.9283 12.2753L34.1341 12.3593C34.9405 12.7322 35.2766 13.4217 35.0094 14.4237C34.2122 17.4205 28.3245 22.0685 21.8639 24.8065C20.7399 25.2898 19.5881 25.7057 18.4147 26.0521C18.3132 26.0884 18.2252 26.1549 18.1627 26.2428C17.904 26.6123 18.0048 27.5077 18.6239 27.4186C19.8707 27.052 21.0945 26.6114 22.2889 26.0991C29.1561 23.1914 35.4076 18.2553 36.256 15.0713ZM42.7636 19.9603L42.9703 20.3551C43.0966 20.7009 43.1428 20.8273 43.1607 20.9576C43.1711 21.0327 43.172 21.1091 43.1736 21.2294C43.1712 21.2513 43.1614 21.2718 43.1458 21.2874C42.9585 21.2244 42.5049 20.3635 42.4621 19.9864C42.4649 19.6702 42.3893 19.3582 42.242 19.0784L42.7636 19.9603ZM42.1756 18.9667L42.242 19.0784C42.221 19.0398 42.1991 19.0028 42.1756 18.9667ZM44.2715 23.7592C44.369 24.1329 44.3555 24.5688 44.2237 25.0669C43.3836 28.2039 38.0444 32.804 31.5779 36.1981C30.8555 36.4996 30.4128 35.9545 30.5858 35.4892C30.6563 35.314 30.7871 35.1698 30.9546 35.0827C37.5295 31.6324 42.9603 26.9558 43.807 23.7667C43.9485 23.2362 43.9562 22.7753 43.8418 22.3841L43.9006 22.563C44.0295 22.9542 44.1764 23.4002 44.2715 23.7592ZM43.807 22.2776L43.8418 22.3841C43.8312 22.348 43.8196 22.3125 43.807 22.2776ZM15.194 17.5994C15.178 17.6596 15.166 17.7207 15.1579 17.7825C15.1233 17.9836 15.1691 18.1902 15.2856 18.3578C15.8047 19.0642 17.7528 18.9021 20.2804 17.8354C21.0757 17.4952 21.8479 17.1036 22.5922 16.6629C22.7526 16.5243 22.6384 16.3101 22.5846 16.2303C22.5308 16.1506 22.2654 15.8482 22.0369 15.9322C21.4453 16.2809 20.8316 16.5906 20.1998 16.8594C18.1921 17.7119 16.6422 17.8413 16.229 17.2794C16.1181 17.1282 16.0895 16.9283 16.1567 16.6763C16.2588 16.3586 16.4233 16.0645 16.6406 15.8112C17.018 15.3593 17.4448 14.9511 17.9132 14.5942C19.098 13.7398 20.3743 13.02 21.7185 12.4483C21.8874 12.3762 22.0507 12.3152 22.2135 12.2544L22.2135 12.2543C22.2613 12.2365 22.3091 12.2186 22.3569 12.2005C24.352 11.5479 25.6583 11.7487 25.3869 12.7658C25.3038 13.0807 25.0795 13.4343 24.7435 13.8366C24.8863 13.9836 25.6633 14.1634 26.0035 13.9954C26.4176 13.5208 26.6974 13.0723 26.8024 12.6809C27.1132 11.5126 25.775 11.2002 23.6321 11.7747C23.4653 11.8196 23.3698 11.8483 23.2534 11.8833L23.2533 11.8833L23.2533 11.8833L23.2531 11.8834C23.2019 11.8988 23.1466 11.9154 23.0794 11.9351C22.8593 11.9998 22.7854 12.0241 22.5426 12.109C22.2998 12.1938 22.1696 12.2417 22.0016 12.3063C21.8327 12.3693 21.7151 12.4179 21.4883 12.5116L21.4506 12.5272C21.2955 12.5935 21.2191 12.6278 21.0978 12.6823L21.0221 12.7162C20.8516 12.7926 20.7811 12.8271 20.6131 12.9094C20.4967 12.9664 20.4316 13 20.3501 13.0421C20.3138 13.0608 20.2744 13.0811 20.2258 13.1059C20.0679 13.1866 20.0074 13.2193 19.8478 13.3083C19.7419 13.3674 19.6807 13.4032 19.6073 13.4461L19.6073 13.4462L19.6072 13.4462L19.607 13.4464C19.5699 13.468 19.5297 13.4916 19.479 13.5208C19.3278 13.6082 19.2732 13.6409 19.1128 13.7417C19.0015 13.8116 18.9416 13.8508 18.8635 13.9019L18.8634 13.9019C18.8289 13.9245 18.7908 13.9494 18.7432 13.9803C18.5957 14.0759 18.5367 14.1171 18.3955 14.2158L18.3719 14.2322C18.2364 14.3271 18.1687 14.3769 18.0687 14.4505L17.9804 14.5153C17.8595 14.6038 17.7943 14.6546 17.6941 14.7326L17.6941 14.7327L17.6941 14.7327L17.694 14.7327L17.5923 14.8118C17.4409 14.9329 17.366 14.9952 17.2554 15.0874L17.1647 15.1628C16.9959 15.3031 16.9203 15.3669 16.7389 15.5349C16.4014 15.8345 16.0887 16.1609 15.8039 16.5109C15.6009 16.7571 15.4298 17.028 15.2948 17.3172C15.2539 17.4085 15.2202 17.5028 15.194 17.5994ZM13.293 20.2711C13.3041 20.1818 13.3216 20.0934 13.3451 20.0065C13.3831 19.8672 13.4317 19.731 13.4905 19.5992C13.5795 19.4161 13.7131 19.1792 13.8155 19.0037C13.8929 18.8713 13.9936 18.7288 14.0968 18.5828L14.0968 18.5828L14.0968 18.5828C14.1305 18.5352 14.1643 18.4873 14.1978 18.4393L14.2363 18.3838C14.3605 18.2051 14.4883 18.0212 14.601 17.869L14.832 17.5691L14.8362 17.5641C14.7112 17.7261 14.5994 17.8926 14.4872 18.0597L14.4872 18.0597L14.4871 18.0597L14.4871 18.0597L14.4871 18.0597L14.4871 18.0597L14.4871 18.0597L14.4871 18.0597L14.4871 18.0597L14.4871 18.0597L14.4871 18.0597L14.4871 18.0597L14.4346 18.1377C14.2759 18.385 14.1527 18.6533 14.0684 18.9348C13.9626 19.3321 14.0079 19.6504 14.1843 19.8898C14.727 20.6297 16.5146 20.6138 18.9279 19.8133C19.2782 19.7629 19.2446 20.4071 19.2438 20.4139C19.2136 20.7649 19.1674 21.2949 16.0979 21.6737C15.2176 21.7812 14.0508 21.7728 13.4938 21.1211L13.4804 21.1026C13.4045 20.9955 13.3497 20.8749 13.3191 20.7473C13.3191 20.7426 13.3172 20.7382 13.3153 20.7335C13.3138 20.7299 13.3123 20.7262 13.3115 20.7221C13.2885 20.5729 13.2823 20.4216 13.293 20.2711ZM12.07 22.7068C12.0406 22.8172 12.0184 22.9294 12.0036 23.0427C11.9515 23.4627 12.0347 23.8121 12.238 24.0893C13.1855 25.3802 16.7447 25.0837 21.3648 23.1267C27.2156 20.6474 32.549 16.4353 33.2731 13.7199C33.5343 12.7406 33.1605 12.0922 32.2482 11.7562L32.22 11.7484C32.0614 11.7045 31.8924 11.6577 31.6014 11.5975C31.2086 11.5147 31.19 11.516 31.0409 11.5259L31.0386 11.5261C31.824 11.815 32.1651 12.4096 31.9265 13.305C31.2646 15.7869 26.389 19.6378 21.0372 21.9055C16.8195 23.6928 13.5644 23.9666 12.6975 22.7841C12.4648 22.4666 12.4043 22.0441 12.5446 21.5175C12.5776 21.395 12.6183 21.2746 12.6664 21.1572C12.6958 21.0875 12.726 21.0186 12.7546 20.9548C12.7218 21.0228 12.6933 21.0908 12.6664 21.1572C12.5168 21.5033 12.3593 21.9087 12.2243 22.2564L12.2242 22.2565L12.2242 22.2565L12.2242 22.2566L12.154 22.4372C12.1215 22.5279 12.0935 22.6178 12.07 22.7068ZM11.3239 25.9992L11.4592 25.0913L11.5776 24.4874C11.5877 24.4412 11.5994 24.3942 11.612 24.3463C11.592 24.4387 11.5779 24.5324 11.5639 24.6261C11.555 24.6855 11.546 24.745 11.5356 24.804C11.4995 25.2298 11.5868 25.5893 11.7968 25.8749C11.9586 26.0892 12.1691 26.262 12.4109 26.3788C12.6226 26.5678 12.5109 27.2968 12.5092 27.3027C12.4714 27.5253 12.3958 27.7865 12.2505 27.7638C11.9915 27.6337 11.7687 27.4415 11.602 27.2044V27.2322C11.5825 27.2056 11.5668 27.1767 11.5512 27.1478C11.5426 27.1318 11.5339 27.1158 11.5247 27.1003C11.5202 27.0927 11.5156 27.0852 11.5111 27.0777L11.511 27.0777C11.5011 27.0614 11.4913 27.0453 11.4827 27.0281C11.4762 27.015 11.4701 27.0058 11.4645 26.9973C11.4592 26.9893 11.4544 26.982 11.4499 26.9726C11.3992 26.8561 11.3633 26.7336 11.3432 26.6081C11.3395 26.5897 11.3375 26.5706 11.3355 26.5515C11.3343 26.5401 11.333 26.5287 11.3315 26.5174C11.3221 26.4643 11.3153 26.4108 11.3113 26.357C11.3053 26.2362 11.3095 26.1151 11.3239 25.995V25.9992ZM11.3684 29.9924C11.3743 30.0132 11.3801 30.0339 11.3878 30.0534V30.0492L11.3948 30.0673L11.3948 30.0674C11.3989 30.0779 11.4028 30.0883 11.4071 30.0979C11.4542 30.2116 11.5142 30.3196 11.586 30.4196C11.5856 30.4126 11.5856 30.4056 11.586 30.3986C12.8015 32.0952 17.4334 31.7206 23.4531 29.174C31.0687 25.9429 38.0057 20.4643 38.9448 16.935C39.2027 15.97 38.9851 15.2502 38.3795 14.7798L37.7075 14.2759L37.1329 13.8879C37.4311 14.1071 37.9838 14.5144 37.9351 15.4778C37.6613 20.9984 16.2801 34.1529 11.5129 29.0497C11.3217 28.7837 11.2137 28.4678 11.2012 28.142C11.2007 28.1064 11.2004 28.0716 11.2004 28.0376C11.1996 28.0725 11.1998 28.1073 11.2012 28.142C11.2055 28.4573 11.228 28.829 11.2486 29.1713L11.2486 29.1713L11.2486 29.1713L11.2486 29.1714C11.2544 29.2673 11.26 29.3609 11.2651 29.4503V29.4671C11.271 29.4999 11.271 29.536 11.271 29.5679C11.2752 29.5755 11.2752 29.5814 11.2752 29.5889C11.2769 29.6018 11.28 29.615 11.2832 29.6288C11.2865 29.6429 11.2899 29.6576 11.292 29.6729C11.3058 29.7678 11.3275 29.8613 11.3567 29.9526C11.3609 29.9657 11.3647 29.9791 11.3684 29.9924ZM12.2547 33.6028L12.2413 33.5851L12.2363 33.5784L12.2304 33.5709L12.2203 33.5566C12.104 33.4183 12.0224 33.2541 11.9826 33.0778C11.9505 32.9601 11.9149 32.8326 11.878 32.7006L11.8779 32.7003L11.8779 32.7002L11.8779 32.7002C11.7793 32.3474 11.6717 31.9619 11.5967 31.6409C11.6497 31.8537 11.7433 32.0544 11.8725 32.2321L11.8919 32.2581C13.204 33.974 18.0047 33.565 24.2092 30.9378C32.1256 27.5782 39.3364 21.8845 40.3158 18.2133C40.5384 17.3734 40.4183 16.7183 40.0075 16.2387L40.1603 16.4031L40.1639 16.4069L40.1664 16.4096L40.1673 16.4105C40.4305 16.6933 40.7212 17.0055 40.9417 17.2676C41.3533 17.7564 41.4717 18.425 41.2457 19.2716C40.2469 23.0167 32.8917 28.8263 24.8165 32.2472C18.4785 34.9349 13.5837 35.3481 12.2522 33.591L12.2547 33.6028ZM39.9017 16.1254L40.0075 16.2387C39.9739 16.2001 39.9395 16.1615 39.9017 16.1254ZM11.5827 31.5803C11.587 31.6006 11.5917 31.6208 11.5967 31.6409L11.5827 31.5803ZM13.2914 36.0922C13.5014 36.5458 13.5711 36.5962 13.5711 36.5962V36.592C13.6696 36.7052 13.7757 36.8115 13.8886 36.9103C15.5687 38.3289 20.314 37.8065 26.3672 35.2523C31.2259 33.1938 35.8284 30.2844 38.9861 27.4631L38.9862 27.4629C39.1139 27.284 39.3069 27.0136 39.1432 26.5695C39.0676 26.3646 38.8315 25.9186 38.2821 26.2083C35.1262 29.0245 30.5321 31.9289 25.6817 33.9841C19.2228 36.7188 14.2397 37.1337 12.9133 35.3279C13.0242 35.5687 13.1421 35.8081 13.267 36.046L13.2914 36.0922ZM15.1301 38.7975C14.9545 38.5909 14.7815 38.3818 14.6395 38.1979C14.6303 38.1869 14.6219 38.1752 14.6135 38.1634C14.6202 38.1722 14.6273 38.1804 14.6345 38.1886C14.6416 38.1968 14.6488 38.205 14.6555 38.2138C15.4434 39.2074 17.3931 39.4913 20.1157 39.0428C20.665 39.0134 21.0262 39.472 21.0926 39.5963C21.169 39.7407 21.2489 39.9969 20.9154 40.0943C18.3457 40.5143 16.4716 40.2783 15.6417 39.3922C15.4846 39.2141 15.304 39.0008 15.1301 38.7933V38.7975ZM17.2148 40.8911C17.178 40.8641 17.1425 40.8362 17.1083 40.8074V40.8032C17.1425 40.8319 17.1781 40.8613 17.2148 40.8911ZM17.2148 40.8911C18.7915 42.0491 22.7929 41.6412 27.9051 39.6173C28.6757 39.3806 28.9329 39.8953 28.9359 39.9012L28.9359 39.9012C28.9787 40.0045 29.0333 40.2682 28.5999 40.4832C23.6949 42.4251 19.8485 42.8232 18.3053 41.7338C18.2011 41.6533 18.0865 41.5662 17.9678 41.476L17.9676 41.4758L17.9676 41.4758L17.9674 41.4756C17.7146 41.2834 17.4434 41.0772 17.2148 40.8911ZM39.8513 39.5543C39.7436 39.7282 39.6102 39.8848 39.4557 40.0188C37.8537 41.3072 35.7411 42.5821 33.5276 43.5203C31.6619 44.3106 30.0306 44.7323 28.8235 44.7936C28.3908 44.802 27.8406 44.8028 27.3677 44.7936C28.7596 44.7936 30.7421 44.3157 33.0387 43.3431C35.547 42.2798 37.9411 40.8351 39.7589 39.3754C39.8026 39.3459 39.8494 39.3211 39.8984 39.3015L39.9345 39.3678C39.9116 39.4307 39.8838 39.4916 39.8513 39.5501V39.5543ZM27.077 44.7869C27.1703 44.7936 27.2677 44.7936 27.3677 44.7936L27.077 44.7869ZM24.9474 44.5265C29.528 45.2622 41.0339 39.5291 43.5413 34.4057C43.6918 34.0657 43.8378 33.6249 43.968 33.2315L43.9683 33.2306L43.971 33.2227C43.9911 33.1618 44.0109 33.1021 44.0303 33.0441C44.0494 32.9913 44.0671 32.939 44.0832 32.8872C44.0659 32.9377 44.0483 32.9901 44.0303 33.0441C43.0079 35.8601 37.6453 40.025 31.7776 42.5116C28.1537 44.0468 25.1572 44.5952 23.491 44.1879C23.4487 44.177 23.4074 44.1661 23.3673 44.1553C23.4077 44.1668 23.4489 44.1777 23.491 44.1879C23.9319 44.3023 24.4805 44.4234 24.9103 44.5183L24.9105 44.5183L24.9474 44.5265ZM44.6904 29.9464L44.6904 29.9465C44.6525 30.2577 44.6118 30.5921 44.5655 30.8605C44.5513 30.9445 44.5328 31.0235 44.5101 31.1083C43.6877 34.1907 37.6337 38.9723 30.9857 41.7884C26.6637 43.6202 23.1541 44.1695 21.4564 43.48C21.3879 43.4482 21.3157 43.4149 21.2411 43.3804L21.2403 43.3801L21.2402 43.38C20.8575 43.2034 20.4109 42.9972 20.0695 42.8181C25.9018 45.2471 43.9011 35.4119 44.7604 29.326L44.7403 29.5469C44.7241 29.6698 44.7075 29.8057 44.6904 29.9464ZM38.6197 34.9349C41.8613 32.542 44.184 30.0332 44.6964 28.1115H44.6973C44.772 27.8452 44.8063 27.5691 44.7989 27.2926L44.7678 26.7517L44.6689 25.7952C44.7024 26.1353 44.6707 26.4788 44.5755 26.8072C44.0454 28.796 41.6429 31.3947 38.2828 33.8724C38.1111 34.0111 37.9912 34.2038 37.9426 34.4192C37.8636 34.7929 38.0946 35.2565 38.6197 34.9349Z" fill="white"/>
</g>
</svg>
