<svg width="83" height="83" viewBox="0 0 83 83" fill="none" xmlns="http://www.w3.org/2000/svg">
<g opacity="0.6">
<path fill-rule="evenodd" clip-rule="evenodd" d="M52.8101 71.2169C36.3107 77.5505 17.8013 69.3096 11.4678 52.8101C5.13424 36.3107 13.3751 17.8013 29.8746 11.4678C46.374 5.13424 64.8834 13.3751 71.2169 29.8746C77.5505 46.374 69.3096 64.8834 52.8101 71.2169Z" fill="#1786C4"/>
<path fill-rule="evenodd" clip-rule="evenodd" d="M55.2955 15.4201L49.2462 17.7422L43.4447 31.2058C41.6938 35.269 37.0159 37.0646 32.996 35.2167L19.6758 29.0932L13.6266 31.4153L31.1607 39.4759C37.5078 42.3938 44.8942 39.5584 47.6586 33.143L55.2955 15.4201ZM27.3109 67.2943L33.3601 64.9722L39.2087 51.3991C40.9595 47.3359 45.6374 45.5403 49.6574 47.3882L63.0859 53.5616L69.1353 51.2394L51.4929 43.1289C45.1456 40.2111 37.7593 43.0465 34.9948 49.4619L27.3109 67.2943Z" fill="white"/>
</g>
</svg>
